<svg xmlns="http://www.w3.org/2000/svg" xmlns:xlink="http://www.w3.org/1999/xlink" xmlns:lucid="lucid" width="860" height="1280"><g transform="translate(-260 -20)" lucid:page-tab-id="0_0"><path d="M0 0h1870.87v1322.83H0z" fill="#fff"/><path d="M280 826c0-3.3 2.7-6 6-6h728c3.3 0 6 2.7 6 6v448c0 3.3-2.7 6-6 6H286c-3.3 0-6-2.7-6-6z" fill="#fff"/><path d="M316.33 820h30.34m15.16 0h30.34m15.16 0h30.34m15.16 0h30.34m15.16 0h30.34m15.16 0h30.34m15.16 0h30.34m15.16 0h30.34m15.16 0h30.34m15.16 0h30.34m15.16 0h30.34m15.16 0h30.34m15.16 0h30.34m15.16 0h30.34m15.16 0h30.34m15.16 0H1014l3.03.82 2.15 2.15.82 3.03v14.93m0 14.94v29.86m0 14.94v29.86m0 14.94v29.86m0 14.94v29.86m0 14.94v29.86m0 14.94v29.86m0 14.94v29.86m0 14.94v29.86m0 14.94v29.86m0 14.94V1274l-.82 3.03-2.15 2.15-3.03.82h-15.17m-15.16 0h-30.34m-15.16 0h-30.34m-15.16 0h-30.34m-15.16 0h-30.34m-15.16 0h-30.34m-15.16 0h-30.34m-15.16 0h-30.34m-15.16 0h-30.34m-15.16 0h-30.34m-15.16 0h-30.34m-15.16 0h-30.34m-15.16 0h-30.34m-15.16 0h-30.34m-15.16 0h-30.34m-15.16 0h-30.34m-15.16 0H286l-3.03-.82-2.15-2.15-.82-3.03v-14.93m0-14.94v-29.86m0-14.94v-29.86m0-14.94v-29.86m0-14.94v-29.86m0-14.94v-29.86m0-14.94v-29.86m0-14.94v-29.86m0-14.94v-29.86m0-14.94v-29.86m0-14.94V826l.82-3.03 2.15-2.15L286 820h15.17" stroke="#5e5e5e" stroke-width="3" fill="none"/><path d="M408 160c17.67 0 32 17.9 32 40s-14.33 40-32 40h-96c-17.67 0-32-17.9-32-40s14.33-40 32-40z" stroke="#5e5e5e" stroke-width="3" fill="#ccc"/><use xlink:href="#a" transform="matrix(1,0,0,1,285,165) translate(3.3580246913580396 40.201388888888886)"/><path d="M640 414.33c0-3.3 2.7-6 6-6h132c3.3 0 6 2.7 6 6v96c-24.05-17.03-39.02-17.03-48.1-17.03-14.4 0-33.55 17.03-47.95 17.03-8.93 0-24.05 0-47.95-17.03z" stroke="#5e5e5e" stroke-width="3" fill="#e5e5e5"/><path d="M648 423.33c0-3.3 2.7-6 6-6h132c3.3 0 6 2.7 6 6v96c-24.05-17.03-39.02-17.03-48.1-17.03-14.4 0-33.55 17.03-47.95 17.03-8.93 0-24.05 0-47.95-17.03z" stroke="#5e5e5e" stroke-width="3" fill="#e5e5e5"/><path d="M656 432.33c0-3.3 2.7-6 6-6h132c3.3 0 6 2.7 6 6v96c-24.05-17.03-39.02-17.03-48.1-17.03-14.4 0-33.55 17.03-47.95 17.03-8.93 0-24.05 0-47.95-17.03z" stroke="#5e5e5e" stroke-width="3" fill="#e5e5e5"/><use xlink:href="#b" transform="matrix(1,0,0,1,661,431.33333333333326) translate(9.777777777777793 43.638888888888886)"/><path d="M580 1006c0-3.3 2.7-6 6-6h188c3.3 0 6 2.7 6 6v48c0 3.3-2.7 6-6 6H586c-3.3 0-6-2.7-6-6z" stroke="#5e5e5e" stroke-width="3" fill="#999"/><path d="M600 986c0-3.3 2.7-6 6-6h188c3.3 0 6 2.7 6 6v48c0 3.3-2.7 6-6 6H606c-3.3 0-6-2.7-6-6z" stroke="#5e5e5e" stroke-width="3" fill="#999"/><path d="M620 966c0-3.3 2.7-6 6-6h188c3.3 0 6 2.7 6 6v48c0 3.3-2.7 6-6 6H626c-3.3 0-6-2.7-6-6z" stroke="#5e5e5e" stroke-width="3" fill="#999"/><use xlink:href="#c" transform="matrix(1,0,0,1,625,965) translate(0.11111111111112848 31.138888888888886)"/><path d="M580 1206c0-3.3 2.7-6 6-6h188c3.3 0 6 2.7 6 6v48c0 3.3-2.7 6-6 6H586c-3.3 0-6-2.7-6-6z" stroke="#5e5e5e" stroke-width="3" fill="#999"/><path d="M600 1186c0-3.3 2.7-6 6-6h188c3.3 0 6 2.7 6 6v48c0 3.3-2.7 6-6 6H606c-3.3 0-6-2.7-6-6z" stroke="#5e5e5e" stroke-width="3" fill="#999"/><path d="M620 1166c0-3.3 2.7-6 6-6h188c3.3 0 6 2.7 6 6v48c0 3.3-2.7 6-6 6H626c-3.3 0-6-2.7-6-6z" stroke="#5e5e5e" stroke-width="3" fill="#999"/><use xlink:href="#c" transform="matrix(1,0,0,1,625,1165) translate(0.11111111111112848 31.138888888888886)"/><path d="M580 886c0-3.3 2.7-6 6-6h188c3.3 0 6 2.7 6 6v48c0 3.3-2.7 6-6 6H586c-3.3 0-6-2.7-6-6z" stroke="#5e5e5e" stroke-width="3" fill="#999"/><path d="M600 866c0-3.3 2.7-6 6-6h188c3.3 0 6 2.7 6 6v48c0 3.3-2.7 6-6 6H606c-3.3 0-6-2.7-6-6z" stroke="#5e5e5e" stroke-width="3" fill="#999"/><path d="M620 846c0-3.3 2.7-6 6-6h188c3.3 0 6 2.7 6 6v48c0 3.3-2.7 6-6 6H626c-3.3 0-6-2.7-6-6z" stroke="#5e5e5e" stroke-width="3" fill="#999"/><use xlink:href="#c" transform="matrix(1,0,0,1,625,845) translate(0.11111111111112848 31.138888888888886)"/><path d="M580 1076.33c0-3.3 2.7-6 6-6h228c3.3 0 6 2.7 6 6v67.34c0 3.3-2.7 6-6 6H586c-3.3 0-6-2.7-6-6z" stroke="#000" stroke-opacity="0" stroke-width="3" fill="#fff" fill-opacity="0"/><use xlink:href="#d" transform="matrix(1,0,0,1,585,1075.3333333333335) translate(71.66666666666671 48.40972222222217)"/><path d="M860 866c0-3.3 2.7-6 6-6h88c3.3 0 6 2.7 6 6v368c0 3.3-2.7 6-6 6h-88c-3.3 0-6-2.7-6-6z" fill="none"/><path d="M860 1240c5.52 0 10-4.48 10-10v-170c0-5.52 4.48-10 10-10-5.52 0-10-4.48-10-10V870c0-5.52-4.48-10-10-10" stroke="#5e5e5e" stroke-width="7" fill="none"/><use xlink:href="#e" transform="matrix(1,0,0,1,895,865) translate(0 191.22222222222223)"/><path d="M994.43 42.23c3.08-1.23 8.06-1.23 11.14 0l88.86 35.54c3.08 1.23 3.08 3.23 0 4.46l-88.86 35.54c-3.08 1.23-8.06 1.23-11.14 0l-88.86-35.54c-3.08-1.23-3.08-3.23 0-4.46z" stroke="#5e5e5e" stroke-width="3" fill="#fff"/><use xlink:href="#f" transform="matrix(1,0,0,1,905,45) translate(26.55555555555557 41.22222222222222)"/><path d="M455.6 82h-89.33l-2.26.6-1.4 1.4-.6 2.27v49.5h-4V85.72l1.03-3.8 2.9-2.9 3.8-1.03h89.88m444.04 4H596.4v-4h303.24" fill="#5e5e5e"/><path d="M901.3 80.5L903 82h-3.44v-4h3.44M360 152.03l-4.64-14.27h9.28z" fill="#5e5e5e"/><path d="M360 158.5l-7.4-22.74h14.8m-9.28 4l1.88 5.8 1.88-5.8" fill="#5e5e5e"/><use xlink:href="#g" transform="matrix(1,0,0,1,455.61111111111114,61.33333333333338) translate(0 24.888888888888886)"/><path d="M722 384.1h-4V233.47h4M899.64 82H726.27l-2.26.6-1.4 1.4-.6 2.27v109.86h-4V85.73l1.03-3.8 2.9-2.9 3.8-1.03h173.9" fill="#5e5e5e"/><path d="M901.3 80.5L903 82h-3.44v-4h3.44M720 400.36l-4.64-14.26h9.28z" fill="#5e5e5e"/><path d="M720 406.83l-7.4-22.73h14.8m-9.28 4l1.88 5.8 1.88-5.8" fill="#5e5e5e"/><use xlink:href="#h" transform="matrix(1,0,0,1,632.3271604938271,196.13333333333324) translate(0 24.888888888888886)"/><path d="M580 726c0-3.3 2.7-6 6-6h188c3.3 0 6 2.7 6 6v48c0 3.3-2.7 6-6 6H586c-3.3 0-6-2.7-6-6z" stroke="#5e5e5e" stroke-width="3" fill="#b2b2b2"/><path d="M600 706c0-3.3 2.7-6 6-6h188c3.3 0 6 2.7 6 6v48c0 3.3-2.7 6-6 6H606c-3.3 0-6-2.7-6-6z" stroke="#5e5e5e" stroke-width="3" fill="#b2b2b2"/><path d="M620 686c0-3.3 2.7-6 6-6h188c3.3 0 6 2.7 6 6v48c0 3.3-2.7 6-6 6H626c-3.3 0-6-2.7-6-6z" stroke="#5e5e5e" stroke-width="3" fill="#b2b2b2"/><use xlink:href="#c" transform="matrix(1,0,0,1,625,685) translate(0.11111111111112848 31.138888888888886)"/><path d="M362 321.58l.6 2.25 1.4 1.4 2.27.6h96v4h-96.54l-3.8-1.02-2.9-2.9-1.03-3.8v-78.6h4m335.26 82.34v4H531.4v-4" fill="#5e5e5e"/><path d="M362 243.55h-4v-2.05h4M713.53 327.84l-14.27 4.64v-9.27z" fill="#5e5e5e"/><path d="M720 327.84l-22.74 7.4v-14.8m4 9.28l5.8-1.88-5.8-1.88" fill="#5e5e5e"/><use xlink:href="#i" transform="matrix(1,0,0,1,462.2610299354718,309.17547099325395) translate(0 24.888888888888886)"/><path d="M540.5 743.73l.6 2.26 1.4 1.4 2.27.6h11v4h-11.54l-3.8-1.03-2.9-2.9-1.03-3.8v-132.2h4m96-141.44h-91.73l-2.26.6-1.4 1.4-.6 2.26v97.16h-4v-97.7l1.03-3.8 2.9-2.9 3.8-1.03h92.27" fill="#5e5e5e"/><path d="M638.5 470.63h-2.05v-4h2.05M572.03 750l-14.27 4.64v-9.28z" fill="#5e5e5e"/><path d="M578.5 750l-22.74 7.4v-14.8m4 9.28l5.8-1.88-5.8-1.88M560.5 723.73l.6 2.26 1.4 1.4 2.27.6h11v4h-11.54l-3.8-1.03-2.9-2.9-1.03-3.8v-112.2h4m76-115.95h-71.73l-2.26.6-1.4 1.4-.6 2.26v71.68h-4v-72.2l1.03-3.8 2.9-2.92 3.8-1.02h72.27" fill="#5e5e5e"/><path d="M638.5 494.12l3 1.93-5.05.07v-4h2.05M592.03 730l-14.27 4.64v-9.28z" fill="#5e5e5e"/><path d="M598.5 730l-22.74 7.4v-14.8m4 9.28l5.8-1.88-5.8-1.88" fill="#5e5e5e"/><use xlink:href="#j" transform="matrix(1,0,0,1,521.4629629629629,572.0584454804493) translate(0 26.666666666666657)"/><path d="M580.5 703.73l.6 2.26 1.4 1.4 2.27.6h11v4h-11.54l-3.8-1.03-2.9-2.9-1.03-3.8v-92.2h4m86.37-87.8l-1.03 3.8-2.9 2.9-3.8 1.03h-74.37l-2.26.6-1.4 1.4-.6 2.27v35.8h-4v-36.34l1.03-3.8 2.9-2.9 3.8-1.03h74.37l2.26-.6 1.4-1.4.6-2.27v-2.93h4" fill="#5e5e5e"/><path d="M665.6 519.28l1.27.64v.93h-4v-3.34M612.03 710l-14.27 4.64v-9.28z" fill="#5e5e5e"/><path d="M618.5 710l-22.74 7.4v-14.8m4 9.28l5.8-1.88-5.8-1.88" fill="#5e5e5e"/><path d="M860 676c0-3.3 2.7-6 6-6h28c3.3 0 6 2.7 6 6v108c0 3.3-2.7 6-6 6h-28c-3.3 0-6-2.7-6-6z" fill="none"/><path d="M860 790c5.52 0 10-4.48 10-10v-40c0-5.52 4.48-10 10-10-5.52 0-10-4.48-10-10v-40c0-5.52-4.48-10-10-10M883.1 732h199.7c3.3 0 6 2.7 6 6v124.35c0 3.32-2.7 6-6 6h-36.44M883.16 732h-2.56" stroke="#5e5e5e" stroke-width="5" fill="none"/><path d="M1029.6 868.35l14.26-4.63V873z" stroke="#5e5e5e" stroke-width="5" fill="#5e5e5e"/><path d="M300 866c0-3.3 2.7-6 6-6h228c3.3 0 6 2.7 6 6v48c0 3.3-2.7 6-6 6H306c-3.3 0-6-2.7-6-6z" stroke="#000" stroke-opacity="0" stroke-width="3" fill="#fff" fill-opacity="0"/><use xlink:href="#k" transform="matrix(1,0,0,1,305,865) translate(8.574074074074105 31.138888888888886)"/><use xlink:href="#l" transform="matrix(1,0,0,1,305,865) translate(162.91975308641975 31.138888888888886)"/><defs><path fill="#333" d="M54 0v-13l38-5v-199l-66 3-4 44H6v-66h229v66h-17l-4-44c-17-2-44-3-67-3v199l38 5V0H54" id="m"/><path fill="#333" d="M126-114c3-31-27-37-49-25v123l15 4V0H10v-12l16-4v-133l-16-5v-11h64l2 14c24-16 81-33 96 3 30-24 105-39 105 27v105l17 4V0h-82v-12l14-4v-98c4-33-27-37-51-24 5 35 0 82 2 122l17 4V0h-83v-12l15-4v-98" id="n"/><path fill="#333" d="M186-86c2 69-46 103-114 85l1 62 25 4v12H5V65l18-4v-210l-18-5v-11h67v8c12-8 26-13 46-13 49 2 67 30 68 84zm-83 71c28 0 31-33 31-69 0-34-2-66-30-66-12 0-23 3-31 7v124c9 2 20 4 30 4" id="o"/><path fill="#333" d="M6-13l30-5v-200l-30-5v-13h201v60h-16l-6-38-93-2v86h61l6-26h16v73h-16l-6-27H92v91l104-3 10-44h16l-4 66H6v-13" id="p"/><path fill="#333" d="M15-82c-4-69 47-101 113-83l-1-69-17-4v-12h68v234l18 4V0h-63l-4-9C77 23 5-9 15-82zm112-66c-43-16-64 17-61 65 2 33 3 67 32 67 12 0 22-3 29-8v-124" id="q"/><path fill="#333" d="M9 41c2-18 18-26 32-33C29 1 16-9 16-28l29-33c-21-9-31-25-31-51-2-56 61-65 111-53l39-20c13 12-9 24-14 36 35 54-17 114-90 92-17 34 27 28 56 28 36-1 61 12 60 46-2 46-39 62-91 62-38 0-71-6-76-38zm35-3c6 35 97 29 94-9-2-28-50-14-78-17-8 7-15 14-16 26zm20-150c0 22 4 40 23 40 20 0 24-17 24-40 0-24-4-40-24-40-19 0-23 17-23 40" id="r"/><path fill="#333" d="M12-83c0-55 22-85 75-86 52-1 66 33 63 88H64c-1 37 6 64 44 63 14 0 28-4 39-6 3 28-28 25-55 27-57 4-80-31-80-86zm90-17c2-26 0-63-27-48-10 9-11 28-11 48h38" id="s"/><path fill="#333" d="M102-142c-14-17-68-15-54 18 24 26 83 17 83 72 0 62-72 62-120 47v-45h12c4 23 16 37 43 37 35 0 39-37 9-46-31-9-65-19-64-61 0-52 59-55 108-45v43h-11" id="t"/><g id="a"><use transform="matrix(0.08641975308641973,0,0,0.08641975308641973,0,0)" xlink:href="#m"/><use transform="matrix(0.08641975308641973,0,0,0.08641975308641973,20.740740740740737,0)" xlink:href="#n"/><use transform="matrix(0.08641975308641973,0,0,0.08641975308641973,46.58024691358024,0)" xlink:href="#o"/><use transform="matrix(0.08641975308641973,0,0,0.08641975308641973,63.864197530864196,0)" xlink:href="#p"/><use transform="matrix(0.08641975308641973,0,0,0.08641975308641973,84.60493827160492,0)" xlink:href="#q"/><use transform="matrix(0.08641975308641973,0,0,0.08641975308641973,101.88888888888887,0)" xlink:href="#r"/><use transform="matrix(0.08641975308641973,0,0,0.08641975308641973,117.44444444444441,0)" xlink:href="#s"/><use transform="matrix(0.08641975308641973,0,0,0.08641975308641973,131.18518518518516,0)" xlink:href="#t"/></g><path fill="#333" d="M258-236v13l-29 5-77 68L255-18l22 5V0h-77l-88-114-20 18v78l34 5V0H6v-13l30-5v-200l-30-5v-13h116v13l-30 5v96l107-96-21-5v-13h80" id="u"/><path fill="#333" d="M81 5L15-149c-7-2-13-5-11-16h84v11l-20 5 39 91 35-91-19-5v-11h53c2 11-4 13-11 15C134-81 111-5 75 58 65 77 34 83 8 74V32h11c0 24 29 35 43 12 7-11 13-25 19-39" id="v"/><path fill="#333" d="M92-101v83l39 5V0H8v-13l28-5v-200l-30-5v-13h197v64h-17l-5-42c-27-3-59-2-89-2v96h57l6-30h15v80h-15l-6-31H92" id="w"/><path fill="#333" d="M77-16l18 4V0H8v-12l18-4v-133l-17-5v-11h68v149zM51-196c-16 0-27-10-27-27s10-27 27-27 27 11 27 27c0 17-10 27-27 27" id="x"/><path fill="#333" d="M76-16l18 4V0H7v-12l18-4v-218l-17-4v-12h68v234" id="y"/><g id="b"><use transform="matrix(0.08641975308641973,0,0,0.08641975308641973,0,0)" xlink:href="#u"/><use transform="matrix(0.08641975308641973,0,0,0.08641975308641973,24.197530864197525,0)" xlink:href="#s"/><use transform="matrix(0.08641975308641973,0,0,0.08641975308641973,37.938271604938265,0)" xlink:href="#v"/><use transform="matrix(0.08641975308641973,0,0,0.08641975308641973,53.493827160493815,0)" xlink:href="#w"/><use transform="matrix(0.08641975308641973,0,0,0.08641975308641973,72.41975308641973,0)" xlink:href="#x"/><use transform="matrix(0.08641975308641973,0,0,0.08641975308641973,81.0617283950617,0)" xlink:href="#y"/><use transform="matrix(0.08641975308641973,0,0,0.08641975308641973,89.70370370370368,0)" xlink:href="#s"/></g><path fill="#333" d="M73-51c-3 31 27 38 51 25v-123l-16-5v-11h66v149l17 4V0h-65l-2-14C94 9 22 18 22-44v-105l-17-5v-11h68v114" id="z"/><path fill="#333" d="M70-250c17 0 27 11 27 27 0 17-10 27-27 27-16 0-27-10-27-27s10-27 27-27zM16 54c22 12 30-19 29-42v-160l-29-6v-11h80V7c2 56-46 80-99 66V34c16-3 14 12 19 20" id="A"/><path fill="#333" d="M31-163c51-5 127-20 127 40v107l17 4V0h-61l-4-13C82 13 12 12 12-46c0-51 46-52 95-53 9-45-22-69-57-44l-7 20H31v-40zM62-47c0 30 26 34 45 23v-59c-28 0-45 6-45 36" id="B"/><path fill="#333" d="M92-134c39 3 62-4 62-44 0-37-25-40-62-38v82zm0 115c49 5 80-2 80-50 0-44-34-49-80-46v96zm138-50C230 26 101-4 6 0v-13l30-5v-200l-30-5v-13c79 7 206-26 206 54 0 33-22 49-49 56 39 3 67 18 67 57" id="C"/><path fill="#333" d="M90-170c54-1 76 32 76 87 1 56-23 87-77 87-53 0-75-32-75-87s23-86 76-87zM89-14c28-2 26-38 26-69s3-69-26-69c-27 0-24 39-24 69s-3 66 24 69" id="D"/><path fill="#333" d="M109-18c15 0 31-2 42-6v14c-11 9-31 13-51 13-59 0-86-28-88-86-3-75 66-101 135-80v48h-13c-3-20-7-40-34-37-51 7-55 138 9 134" id="E"/><path fill="#333" d="M77-79l64-71-17-4v-11h63v11c-32 3-40 30-59 46l57 92 15 4V0h-80c-2-11 3-15 10-16L97-74 77-60v44l16 4V0H10v-12l16-4v-218l-17-4v-12h68v171" id="F"/><g id="c"><use transform="matrix(0.08641975308641973,0,0,0.08641975308641973,0,0)" xlink:href="#w"/><use transform="matrix(0.08641975308641973,0,0,0.08641975308641973,18.92592592592592,0)" xlink:href="#z"/><use transform="matrix(0.08641975308641973,0,0,0.08641975308641973,36.209876543209866,0)" xlink:href="#A"/><use transform="matrix(0.08641975308641973,0,0,0.08641975308641973,46.493827160493815,0)" xlink:href="#x"/><use transform="matrix(0.08641975308641973,0,0,0.08641975308641973,55.13580246913579,0)" xlink:href="#n"/><use transform="matrix(0.08641975308641973,0,0,0.08641975308641973,80.97530864197529,0)" xlink:href="#B"/><use transform="matrix(0.08641975308641973,0,0,0.08641975308641973,96.53086419753085,0)" xlink:href="#o"/><use transform="matrix(0.08641975308641973,0,0,0.08641975308641973,113.8148148148148,0)" xlink:href="#C"/><use transform="matrix(0.08641975308641973,0,0,0.08641975308641973,134.55555555555554,0)" xlink:href="#y"/><use transform="matrix(0.08641975308641973,0,0,0.08641975308641973,143.19753086419752,0)" xlink:href="#D"/><use transform="matrix(0.08641975308641973,0,0,0.08641975308641973,158.75308641975306,0)" xlink:href="#E"/><use transform="matrix(0.08641975308641973,0,0,0.08641975308641973,172.4938271604938,0)" xlink:href="#F"/></g><path fill="#333" d="M74-24C74-7 62 5 45 5S16-7 16-24s12-29 29-29 29 12 29 29" id="G"/><g id="d"><use transform="matrix(0.16049382716049365,0,0,0.16049382716049365,0,0)" xlink:href="#G"/><use transform="matrix(0.16049382716049365,0,0,0.16049382716049365,14.444444444444429,0)" xlink:href="#G"/><use transform="matrix(0.16049382716049365,0,0,0.16049382716049365,28.888888888888857,0)" xlink:href="#G"/><use transform="matrix(0.16049382716049365,0,0,0.16049382716049365,43.333333333333286,0)" xlink:href="#G"/><use transform="matrix(0.16049382716049365,0,0,0.16049382716049365,57.777777777777715,0)" xlink:href="#G"/><use transform="matrix(0.16049382716049365,0,0,0.16049382716049365,72.22222222222214,0)" xlink:href="#G"/></g><path fill="#333" d="M78-41c-2 24 21 26 40 20C122 3 98 2 77 4 5 10 32-84 27-147H6v-11l25-7 21-38h26v38h35v18H78v106" id="H"/><path fill="#333" d="M127-114c3-31-26-38-50-25v123l15 4V0H10v-12l16-4v-218l-17-4v-12h68l-1 99c31-23 102-32 102 30v105l17 4V0h-82v-12l14-4v-98" id="I"/><g id="e"><use transform="matrix(0.08641975308641973,0,0,0.08641975308641973,0,0)" xlink:href="#C"/><use transform="matrix(0.08641975308641973,0,0,0.08641975308641973,20.740740740740737,0)" xlink:href="#B"/><use transform="matrix(0.08641975308641973,0,0,0.08641975308641973,36.29629629629629,0)" xlink:href="#H"/><use transform="matrix(0.08641975308641973,0,0,0.08641975308641973,46.58024691358024,0)" xlink:href="#E"/><use transform="matrix(0.08641975308641973,0,0,0.08641975308641973,60.32098765432097,0)" xlink:href="#I"/><use transform="matrix(0.08641975308641973,0,0,0.08641975308641973,77.60493827160492,0)" xlink:href="#s"/><use transform="matrix(0.08641975308641973,0,0,0.08641975308641973,91.34567901234566,0)" xlink:href="#t"/></g><path fill="#333" d="M21 4H-4l83-241h25" id="J"/><path fill="#333" d="M256-236v13l-22 5L143 5h-24L23-218l-19-5v-13h103v13l-25 5 66 154 62-154-23-5v-13h69" id="K"/><g id="f"><use transform="matrix(0.08641975308641973,0,0,0.08641975308641973,0,0)" xlink:href="#u"/><use transform="matrix(0.08641975308641973,0,0,0.08641975308641973,24.197530864197525,0)" xlink:href="#s"/><use transform="matrix(0.08641975308641973,0,0,0.08641975308641973,37.938271604938265,0)" xlink:href="#v"/><use transform="matrix(0.08641975308641973,0,0,0.08641975308641973,53.493827160493815,0)" xlink:href="#J"/><use transform="matrix(0.08641975308641973,0,0,0.08641975308641973,62.13580246913579,0)" xlink:href="#K"/><use transform="matrix(0.08641975308641973,0,0,0.08641975308641973,81.66666666666664,0)" xlink:href="#B"/><use transform="matrix(0.08641975308641973,0,0,0.08641975308641973,97.2222222222222,0)" xlink:href="#y"/><use transform="matrix(0.08641975308641973,0,0,0.08641975308641973,105.86419753086417,0)" xlink:href="#z"/><use transform="matrix(0.08641975308641973,0,0,0.08641975308641973,123.14814814814812,0)" xlink:href="#s"/></g><path fill="#333" d="M132-132c-21 0-37 9-50 16v100l26 4V0H10v-12l21-4v-133l-21-5v-11h69l2 34c17-18 35-41 71-40v61c-17 3-14-14-20-22" id="L"/><path fill="#333" d="M72-18c49 15 64-22 62-69-1-34-4-62-34-63-10-1-23 2-28 6v126zm33 22C77 4 48-3 21-8v-226l-16-4v-12h67c-1 31 2 66-2 94 11-8 28-14 47-14 51 0 70 31 69 83-1 55-26 91-81 91" id="M"/><g id="g"><use transform="matrix(0.08641975308641973,0,0,0.08641975308641973,0,0)" xlink:href="#t"/><use transform="matrix(0.08641975308641973,0,0,0.08641975308641973,12.098765432098762,0)" xlink:href="#s"/><use transform="matrix(0.08641975308641973,0,0,0.08641975308641973,25.8395061728395,0)" xlink:href="#B"/><use transform="matrix(0.08641975308641973,0,0,0.08641975308641973,41.39506172839505,0)" xlink:href="#L"/><use transform="matrix(0.08641975308641973,0,0,0.08641975308641973,54.530864197530846,0)" xlink:href="#E"/><use transform="matrix(0.08641975308641973,0,0,0.08641975308641973,68.27160493827158,0)" xlink:href="#I"/><use transform="matrix(0.08641975308641973,0,0,0.08641975308641973,85.55555555555553,0)" xlink:href="#B"/><use transform="matrix(0.08641975308641973,0,0,0.08641975308641973,101.11111111111109,0)" xlink:href="#M"/><use transform="matrix(0.08641975308641973,0,0,0.08641975308641973,118.39506172839504,0)" xlink:href="#y"/><use transform="matrix(0.08641975308641973,0,0,0.08641975308641973,127.03703703703701,0)" xlink:href="#s"/></g><path fill="#333" d="M127-114c3-31-26-38-50-25v123l15 4V0H10v-12l16-4v-133l-16-5v-11h64l2 14c31-23 102-32 102 30v105l17 4V0h-82v-12l14-4v-98" id="N"/><g id="h"><use transform="matrix(0.08641975308641973,0,0,0.08641975308641973,0,0)" xlink:href="#z"/><use transform="matrix(0.08641975308641973,0,0,0.08641975308641973,17.283950617283946,0)" xlink:href="#N"/><use transform="matrix(0.08641975308641973,0,0,0.08641975308641973,34.56790123456789,0)" xlink:href="#t"/><use transform="matrix(0.08641975308641973,0,0,0.08641975308641973,46.66666666666666,0)" xlink:href="#s"/><use transform="matrix(0.08641975308641973,0,0,0.08641975308641973,60.4074074074074,0)" xlink:href="#B"/><use transform="matrix(0.08641975308641973,0,0,0.08641975308641973,75.96296296296295,0)" xlink:href="#L"/><use transform="matrix(0.08641975308641973,0,0,0.08641975308641973,89.09876543209874,0)" xlink:href="#E"/><use transform="matrix(0.08641975308641973,0,0,0.08641975308641973,102.83950617283948,0)" xlink:href="#I"/><use transform="matrix(0.08641975308641973,0,0,0.08641975308641973,120.12345679012343,0)" xlink:href="#B"/><use transform="matrix(0.08641975308641973,0,0,0.08641975308641973,135.67901234567898,0)" xlink:href="#M"/><use transform="matrix(0.08641975308641973,0,0,0.08641975308641973,152.96296296296293,0)" xlink:href="#y"/><use transform="matrix(0.08641975308641973,0,0,0.08641975308641973,161.6049382716049,0)" xlink:href="#s"/></g><g id="i"><use transform="matrix(0.08641975308641973,0,0,0.08641975308641973,0,0)" xlink:href="#M"/><use transform="matrix(0.08641975308641973,0,0,0.08641975308641973,17.283950617283946,0)" xlink:href="#z"/><use transform="matrix(0.08641975308641973,0,0,0.08641975308641973,34.56790123456789,0)" xlink:href="#x"/><use transform="matrix(0.08641975308641973,0,0,0.08641975308641973,43.209876543209866,0)" xlink:href="#y"/><use transform="matrix(0.08641975308641973,0,0,0.08641975308641973,51.85185185185184,0)" xlink:href="#q"/></g><g id="j"><use transform="matrix(0.09259259259259256,0,0,0.09259259259259256,0,0)" xlink:href="#M"/><use transform="matrix(0.09259259259259256,0,0,0.09259259259259256,18.518518518518512,0)" xlink:href="#z"/><use transform="matrix(0.09259259259259256,0,0,0.09259259259259256,37.037037037037024,0)" xlink:href="#x"/><use transform="matrix(0.09259259259259256,0,0,0.09259259259259256,46.296296296296276,0)" xlink:href="#y"/><use transform="matrix(0.09259259259259256,0,0,0.09259259259259256,55.55555555555553,0)" xlink:href="#q"/></g><path fill="#333" d="M98-18l30 5V0H12v-13l30-5v-200l-30-5v-13h116v13l-30 5v200" id="O"/><g id="k"><use transform="matrix(0.08641975308641973,0,0,0.08641975308641973,0,0)" xlink:href="#O"/><use transform="matrix(0.08641975308641973,0,0,0.08641975308641973,12.098765432098762,0)" xlink:href="#n"/><use transform="matrix(0.08641975308641973,0,0,0.08641975308641973,37.938271604938265,0)" xlink:href="#n"/><use transform="matrix(0.08641975308641973,0,0,0.08641975308641973,63.777777777777764,0)" xlink:href="#z"/><use transform="matrix(0.08641975308641973,0,0,0.08641975308641973,81.0617283950617,0)" xlink:href="#H"/><use transform="matrix(0.08641975308641973,0,0,0.08641975308641973,91.34567901234566,0)" xlink:href="#B"/><use transform="matrix(0.08641975308641973,0,0,0.08641975308641973,106.90123456790121,0)" xlink:href="#M"/><use transform="matrix(0.08641975308641973,0,0,0.08641975308641973,124.18518518518516,0)" xlink:href="#y"/><use transform="matrix(0.08641975308641973,0,0,0.08641975308641973,132.82716049382714,0)" xlink:href="#s"/></g><path fill="#333" d="M92-112c43 4 61-13 61-54s-18-54-61-50v104zm118-54c0 63-50 78-118 74v74l39 5V0H8v-13l28-5v-200l-30-5v-13c88 3 205-20 204 70" id="P"/><g id="l"><use transform="matrix(0.08641975308641973,0,0,0.08641975308641973,0,0)" xlink:href="#P"/><use transform="matrix(0.08641975308641973,0,0,0.08641975308641973,18.92592592592592,0)" xlink:href="#B"/><use transform="matrix(0.08641975308641973,0,0,0.08641975308641973,34.481481481481474,0)" xlink:href="#L"/><use transform="matrix(0.08641975308641973,0,0,0.08641975308641973,48.222222222222214,0)" xlink:href="#H"/></g></defs></g></svg>